<?xml version="1.0" encoding="UTF-8" standalone="no" ?>
<!DOCTYPE svg PUBLIC "-//W3C//DTD SVG 1.1//EN" "http://www.w3.org/Graphics/SVG/1.1/DTD/svg11.dtd">
<svg xmlns="http://www.w3.org/2000/svg" xmlns:xlink="http://www.w3.org/1999/xlink" version="1.1" width="1080" height="1080" viewBox="0 0 1080 1080" xml:space="preserve">
<desc>Created with Fabric.js 5.2.4</desc>
<defs>
</defs>
<g transform="matrix(1 0 0 1 540 540)" id="2244fe39-2a5a-4f76-9f07-398fd925e191"  >
<rect style="stroke: none; stroke-width: 1; stroke-dasharray: none; stroke-linecap: butt; stroke-dashoffset: 0; stroke-linejoin: miter; stroke-miterlimit: 4; fill: rgb(255,255,255); fill-rule: nonzero; opacity: 1; visibility: hidden;" vector-effect="non-scaling-stroke"  x="-540" y="-540" rx="0" ry="0" width="1080" height="1080" />
</g>
<g transform="matrix(1 0 0 1 540 540)" id="c67cee21-604b-4dd2-bd6b-40b941ab8364"  >
</g>
<g transform="matrix(67.5 0 0 67.5 540 540)"  >
<path style="stroke: none; stroke-width: 1; stroke-dasharray: none; stroke-linecap: butt; stroke-dashoffset: 0; stroke-linejoin: miter; stroke-miterlimit: 4; fill: rgb(255,255,255); fill-rule: evenodd; opacity: 1;"  transform=" translate(-8, -8)" d="M 1.885 0.511 C 2.2389465918189595 0.15758589910015652 2.7275320326792425 -0.026953630008747398 3.226739144180085 0.0042229060734891855 C 3.7259462556809275 0.03539944215572571 4.187775063504279 0.27929434388357 4.495 0.6740000000000007 L 6.29 2.98 C 6.619 3.403 6.735 3.9539999999999997 6.605 4.474 L 6.058000000000001 6.664 C 6.000883648590634 6.894712212588959 6.068371684294109 7.138503262911065 6.236000000000001 7.3069999999999995 L 8.693000000000001 9.764 C 8.861706609162203 9.931976185377955 9.105974740788291 9.999491290082062 9.337000000000002 9.942 L 11.526000000000002 9.395 C 12.045962947991006 9.265760616033253 12.59647813690082 9.381833095622671 13.020000000000001 9.709999999999999 L 15.326 11.504 C 16.155 12.149 16.231 13.373999999999999 15.489 14.115 L 14.455 15.149000000000001 C 13.715 15.889000000000001 12.609 16.214000000000002 11.578 15.851 C 8.938672277372651 14.923582562548502 6.5425391922027565 13.412753998147512 4.567999999999999 11.431 C 2.5863724659486502 9.456748872449957 1.0755517527411858 7.06097005370084 0.1479999999999979 4.422000000000002 C -0.2140000000000003 3.3920000000000003 0.11099999999999968 2.2850000000000006 0.8509999999999996 1.5450000000000008 z" stroke-linecap="round" />
</g>
</svg>